<svg xmlns="http://www.w3.org/2000/svg" width="32" height="32" viewBox="0 0 32 32">
  <!-- Shadow -->
  <ellipse cx="16" cy="29" rx="11" ry="2" fill="#00000020" />
  <!-- Left cover (back) -->
  <path d="M3 5 C3 5 5 3.5 16 4 L16 26 C5 25.5 3 27 3 27 Z" fill="#1e3a5f" />
  <!-- Right cover (back) -->
  <path d="M29 5 C29 5 27 3.5 16 4 L16 26 C27 25.5 29 27 29 27 Z" fill="#1e3a5f" />
  <!-- Left page stack -->
  <path d="M4.5 5.5 C4.5 5.5 6.5 4.2 16 4.8 L16 25.8 C6.5 25.2 4.5 26.5 4.5 26.5 Z" fill="#f5f0e8" />
  <!-- Right page stack -->
  <path d="M27.5 5.5 C27.5 5.5 25.5 4.2 16 4.8 L16 25.8 C25.5 25.2 27.5 26.5 27.5 26.5 Z" fill="#ede7d9" />
  <!-- Left page top -->
  <path d="M5.5 6 C5.5 6 7.5 4.8 16 5.3 L16 25.3 C7.5 24.8 5.5 26 5.5 26 Z" fill="#faf6ef" />
  <!-- Right page top -->
  <path d="M26.5 6 C26.5 6 24.5 4.8 16 5.3 L16 25.3 C24.5 24.8 26.5 26 26.5 26 Z" fill="#f5f0e8" />
  <!-- Spine crease -->
  <path d="M16 4 L16 26" stroke="#1a2e44" stroke-width="0.8" opacity="0.6" />
  <!-- Left page lines -->
  <line x1="8" y1="10" x2="14.5" y2="9.5" stroke="#c4b8a8" stroke-width="0.6" stroke-linecap="round" />
  <line x1="8" y1="12.5" x2="14.5" y2="12" stroke="#c4b8a8" stroke-width="0.6" stroke-linecap="round" />
  <line x1="8" y1="15" x2="14.5" y2="14.5" stroke="#c4b8a8" stroke-width="0.6" stroke-linecap="round" />
  <line x1="8" y1="17.5" x2="14.5" y2="17" stroke="#c4b8a8" stroke-width="0.6" stroke-linecap="round" />
  <line x1="8" y1="20" x2="12" y2="19.7" stroke="#c4b8a8" stroke-width="0.6" stroke-linecap="round" />
  <!-- Right page lines -->
  <line x1="17.5" y1="9.5" x2="24" y2="10" stroke="#c4b8a8" stroke-width="0.6" stroke-linecap="round" />
  <line x1="17.5" y1="12" x2="24" y2="12.5" stroke="#c4b8a8" stroke-width="0.6" stroke-linecap="round" />
  <line x1="17.5" y1="14.5" x2="24" y2="15" stroke="#c4b8a8" stroke-width="0.6" stroke-linecap="round" />
  <line x1="17.5" y1="17" x2="24" y2="17.5" stroke="#c4b8a8" stroke-width="0.6" stroke-linecap="round" />
  <line x1="17.5" y1="19.5" x2="21.5" y2="19.8" stroke="#c4b8a8" stroke-width="0.6" stroke-linecap="round" />
  <!-- Cover edge highlights -->
  <path d="M3 5 C3 5 5 3.5 16 4" stroke="#152d4a" stroke-width="0.5" fill="none" />
  <path d="M29 5 C29 5 27 3.5 16 4" stroke="#152d4a" stroke-width="0.5" fill="none" />
  <path d="M3 27 C3 27 5 25.5 16 26" stroke="#152d4a" stroke-width="0.5" fill="none" />
  <path d="M29 27 C29 27 27 25.5 16 26" stroke="#152d4a" stroke-width="0.5" fill="none" />
</svg>
